<?xml version="1.0" standalone="no"?>
<!DOCTYPE svg PUBLIC "-//W3C//DTD SVG 20010904//EN"
 "http://www.w3.org/TR/2001/REC-SVG-20010904/DTD/svg10.dtd">
<svg version="1.0" xmlns="http://www.w3.org/2000/svg"
 width="200.000000pt" height="200.000000pt" viewBox="0 0 200.000000 200.000000"
 preserveAspectRatio="xMidYMid meet">
<metadata>
Created by potrace 1.14, written by Peter Selinger 2001-2017
</metadata>
<g transform="translate(0.000000,200.000000) scale(0.100000,-0.100000)"
fill="#000000" stroke="none">
<path d="M0 1000 l0 -1000 1000 0 1000 0 0 1000 0 1000 -1000 0 -1000 0 0
-1000z m640 248 l0 -101 23 20 c71 65 149 56 187 -22 18 -37 20 -61 20 -248
l0 -207 -70 0 -70 0 0 171 c0 98 -4 178 -10 190 -12 22 -52 25 -69 6 -6 -8
-12 -80 -13 -188 l-3 -174 -67 -3 -68 -3 0 331 0 330 70 0 70 0 0 -102z m383
-90 c9 -29 22 -75 29 -103 l14 -50 22 85 c13 47 26 92 31 100 10 19 141 28
141 10 0 -13 -126 -447 -140 -486 -8 -20 -16 -24 -54 -24 -25 0 -47 4 -51 9
-6 11 -145 491 -145 503 0 4 31 8 69 8 l70 0 14 -52z m423 26 c20 -12 22 -11
27 7 5 18 12 20 69 17 l63 -3 0 -225 c0 -220 -1 -226 -25 -274 -38 -76 -65
-91 -164 -91 -73 0 -87 3 -124 28 l-42 27 0 77 0 77 33 -31 c56 -53 92 -64
141 -42 24 12 46 54 46 90 0 18 -1 18 -32 -1 -50 -31 -94 -26 -133 13 -41 41
-59 103 -52 182 11 141 99 209 193 149z"/>
<path d="M1389 1073 c-21 -24 -18 -97 5 -122 39 -43 76 -14 76 59 0 27 -3 55
-6 64 -8 21 -58 21 -75 -1z"/>
</g>
</svg>
